HIERARCHY
ROOT Model_Hips
{
	OFFSET 0.000000 96.915077 0.000000
	CHANNELS 6 Xposition Yposition Zposition Xrotation Yrotation Zrotation
	JOINT Model_Spine
	{
		OFFSET 0.000000 11.137703 -1.289900
		CHANNELS 3 Xrotation Yrotation Zrotation
		JOINT Model_Spine1
		{
			OFFSET 0.000000 12.993942 -1.504922
			CHANNELS 3 Xrotation Yrotation Zrotation
			JOINT Model_Spine2
			{
				OFFSET 0.000000 14.850220 -1.719911
				CHANNELS 3 Xrotation Yrotation Zrotation
				JOINT Model_Neck
				{
					OFFSET 0.000000 16.706543 -1.934903
					CHANNELS 3 Xrotation Yrotation Zrotation
					JOINT Model_Head
					{
						OFFSET 0.000000 10.471298 2.002100
						CHANNELS 3 Xrotation Yrotation Zrotation
						JOINT Model_HeadTop_End
						{
							OFFSET 0.000000 20.842606 3.985100
							CHANNELS 3 Xrotation Yrotation Zrotation
							End Site
							{
								OFFSET 0.000000 21.220154 0.000000
							}
						}
					}
				}
				JOINT Model_LeftShoulder
				{
					OFFSET 7.008500 14.768600 -1.919946
					CHANNELS 3 Xrotation Yrotation Zrotation
					JOINT Model_LeftArm
					{
						OFFSET 14.126271 -3.718048 0.029937
						CHANNELS 3 Xrotation Yrotation Zrotation
						JOINT Model_LeftForeArm
						{
							OFFSET 28.282801 0.000000 0.000000
							CHANNELS 3 Xrotation Yrotation Zrotation
							JOINT Model_LeftHand
							{
								OFFSET 26.204689 0.000000 0.000000
								CHANNELS 3 Xrotation Yrotation Zrotation
								End Site
								{
									OFFSET 26.204704 0.000000 0.000000
								}
							}
						}
					}
				}
				JOINT Model_RightShoulder
				{
					OFFSET -7.008500 14.768555 -1.949840
					CHANNELS 3 Xrotation Yrotation Zrotation
					JOINT Model_RightArm
					{
						OFFSET -14.126281 -3.718018 -0.029932
						CHANNELS 3 Xrotation Yrotation Zrotation
						JOINT Model_RightForeArm
						{
							OFFSET -28.283798 0.000000 -0.000001
							CHANNELS 3 Xrotation Yrotation Zrotation
							JOINT Model_RightHand
							{
								OFFSET -26.204193 0.000000 -0.000001
								CHANNELS 3 Xrotation Yrotation Zrotation
								End Site
								{
									OFFSET -26.204208 0.000000 -0.000001
								}
							}
						}
					}
				}
			}
		}
	}
	JOINT Model_LeftUpLeg
	{
		OFFSET 8.327700 -6.193199 -0.402800
		CHANNELS 3 Xrotation Yrotation Zrotation
		JOINT Model_LeftLeg
		{
			OFFSET 0.735802 -42.108742 -0.610721
			CHANNELS 3 Xrotation Yrotation Zrotation
			JOINT Model_LeftFoot
			{
				OFFSET -0.735806 -36.833748 -0.172876
				CHANNELS 3 Xrotation Yrotation Zrotation
				JOINT Model_LeftToeBase
				{
					OFFSET -0.565857 -11.977769 16.297714
					CHANNELS 3 Xrotation Yrotation Zrotation
					JOINT Model_LeftToe_End
					{
						OFFSET -0.111712 -0.312793 7.857784
						CHANNELS 3 Xrotation Yrotation Zrotation
						End Site
						{
							OFFSET -0.111712 -0.312793 7.857784
						}
					}
				}
			}
		}
	}
	JOINT Model_RightUpLeg
	{
		OFFSET -8.327700 -6.193199 -0.516500
		CHANNELS 3 Xrotation Yrotation Zrotation
		JOINT Model_RightLeg
		{
			OFFSET -0.735785 -42.108738 -0.434061
			CHANNELS 3 Xrotation Yrotation Zrotation
			JOINT Model_RightFoot
			{
				OFFSET 0.735776 -36.833748 -0.021630
				CHANNELS 3 Xrotation Yrotation Zrotation
				JOINT Model_RightToeBase
				{
					OFFSET 0.565817 -11.977745 15.903093
					CHANNELS 3 Xrotation Yrotation Zrotation
					JOINT Model_RightToe_End
					{
						OFFSET 0.111702 -0.312791 7.811342
						CHANNELS 3 Xrotation Yrotation Zrotation
						End Site
						{
							OFFSET 0.111702 -0.312791 7.811342
						}
					}
				}
			}
		}
	}
}
MOTION
Frames: 13
Frame Time: 0.016667
0.794244 97.523895 146.567917 13.498814 5.924473 -2.769347 4.825383 -4.557048 5.292077 0.358280 -2.775338 1.845210 0.331685 -2.768284 1.866710 -0.015398 2.229980 -0.258054 -3.699015 0.278002 0.113671 0.000001 -0.000000 -0.000000 1.331510 -4.546019 -1.836010 -7.449706 -31.088142 -63.980322 0.000208 -84.585022 0.000212 0.000000 -0.000002 -0.000001 -0.893297 -8.841756 10.357266 29.134254 7.308101 49.468161 -0.000000 63.485270 -0.000016 -0.000000 -0.000002 -0.000000 5.895691 5.072294 2.056673 44.906752 4.741033 4.023461 12.588840 -1.113812 -7.284083 -2.907710 -0.000000 -0.000006 -0.000002 0.000000 0.000001 -34.262374 -4.201952 0.643716 14.350637 -3.938854 -0.450549 4.141158 -1.967083 10.380669 0.177771 -0.000002 0.000006 0.000000 0.000000 -0.000000 
0.705375 96.608543 150.994080 12.753785 5.953176 -2.698675 5.050001 -4.112764 5.449679 0.493707 -2.672241 1.926557 0.465689 -2.666819 1.946422 0.009851 2.159017 -0.473308 -3.679581 0.258831 0.118493 0.000000 -0.000000 0.000000 1.372626 -3.261854 -2.922689 -6.995091 -31.528338 -64.050126 -0.000030 -81.866272 -0.000005 -0.000001 0.000001 -0.000001 -0.670667 -7.738081 10.444234 26.614151 7.271910 48.009830 -0.000013 62.032543 0.000019 -0.000001 0.000001 -0.000000 4.910064 4.481474 2.491141 50.910133 6.195102 4.184947 12.654393 -0.602675 -7.484718 -2.923860 -0.000002 0.000006 -0.000002 -0.000001 0.000001 -31.420527 -4.463464 1.191411 14.579515 -0.403598 0.593596 4.992838 -0.498258 3.145589 0.553748 0.000001 -0.000001 0.000000 0.000000 0.000001 
0.643989 95.537125 155.630844 12.024989 5.978271 -2.646452 4.958118 -3.689880 5.596603 0.795819 -2.538833 1.994524 0.766126 -2.541045 2.005743 0.014087 2.040699 -0.669490 -3.681095 0.222190 0.101625 -0.000001 -0.000000 -0.000001 1.459458 -2.265283 -4.228930 -6.053630 -32.181065 -63.642712 -0.000050 -78.201356 -0.000034 0.000000 -0.000002 -0.000001 -0.422228 -6.693115 10.448242 23.584408 6.884852 47.064054 0.000016 60.620033 0.000004 0.000001 0.000001 0.000001 3.322523 3.880531 2.617025 57.109677 7.714639 4.570240 13.204905 1.671985 -6.368041 -2.679165 -0.000003 0.000005 -0.000000 -0.000001 0.000002 -28.512131 -4.886333 1.811784 17.565293 1.505970 1.390443 -1.012161 0.354314 -2.804251 0.676029 -0.000004 -0.000001 0.000000 -0.000001 0.000000 
0.555662 94.756691 159.932465 11.326123 5.953894 -2.569016 5.459727 -3.159381 5.713121 0.859902 -2.373748 2.070677 0.830559 -2.374892 2.083766 -0.021601 1.864040 -0.844427 -3.720361 0.159445 0.045442 -0.000000 -0.000000 -0.000000 1.591496 -1.526897 -5.600790 -4.861663 -32.935145 -63.060910 -0.000018 -73.472031 0.000009 -0.000004 -0.000000 0.000001 -0.113545 -5.697971 10.667081 19.924399 5.982570 46.488258 0.000008 59.213505 -0.000007 -0.000001 0.000001 -0.000000 1.395229 3.161048 2.584529 62.492235 8.293177 4.981652 13.739907 5.052204 -6.230487 -2.374360 -0.000002 -0.000002 0.000000 0.000002 -0.000001 -29.142778 -5.338367 1.650373 27.154845 1.974094 1.750603 -9.268196 0.452486 -3.350327 0.641686 0.000004 0.000001 0.000000 0.000000 0.000000 
0.478083 93.733322 164.120712 10.672143 5.845766 -2.491236 5.965780 -2.590494 5.828364 0.991625 -2.138374 2.154643 0.963695 -2.140096 2.166935 -0.124193 1.629498 -0.973868 -3.825530 0.073613 -0.053339 -0.000000 0.000000 -0.000000 1.761248 -0.861155 -6.836808 -4.078009 -33.363066 -62.956592 -0.000018 -67.689538 -0.000016 -0.000001 0.000000 -0.000001 0.264861 -4.792318 11.290506 15.274519 5.071558 45.883251 0.000000 57.399769 0.000021 0.000002 -0.000001 -0.000000 -1.358774 2.378490 2.486786 68.607959 8.695620 5.132971 13.020549 8.431641 -5.136252 -2.602402 -0.000001 -0.000004 -0.000000 0.000001 -0.000000 -28.688283 -5.771860 1.670382 34.344780 2.552952 1.753874 -16.251074 0.462804 -3.666686 0.430122 0.000002 -0.000001 0.000001 0.000001 0.000000 
0.401417 92.875626 168.209457 10.078441 5.630142 -2.403928 6.715495 -1.979506 5.930686 1.142311 -1.772376 2.242746 1.117639 -1.774604 2.254311 -0.275712 1.358952 -1.034410 -3.984575 -0.019083 -0.171604 0.000002 0.000000 0.000000 1.953055 -0.123302 -7.793003 -4.204977 -32.973756 -63.800544 0.000011 -61.235153 0.000007 -0.000001 -0.000001 -0.000002 0.655841 -3.942028 11.958942 9.621243 4.964192 45.341760 0.000001 54.895183 0.000004 0.000002 0.000003 -0.000002 -5.186805 1.523589 2.511553 74.867274 8.279859 4.826418 12.489017 10.238183 -4.310318 -3.481428 -0.000002 -0.000000 0.000000 -0.000002 0.000001 -26.864954 -6.183923 1.758635 38.496995 3.185218 1.851504 -21.598311 0.681890 -4.111324 0.157197 -0.000002 0.000001 -0.000000 -0.000000 0.000000 
0.299006 92.281670 172.020508 9.647670 5.171422 -2.297663 7.586667 -1.280617 5.850428 1.296143 -1.265197 2.299480 1.276892 -1.268422 2.309252 -0.434051 1.085690 -1.031635 -4.158087 -0.099433 -0.269791 0.000000 0.000000 -0.000000 2.142375 0.707859 -8.511129 -4.761933 -31.600775 -65.138524 -0.000006 -54.854772 -0.000003 -0.000003 0.000001 -0.000001 0.981472 -2.925917 12.098725 3.573123 5.857236 45.382044 -0.000015 52.064613 0.000019 0.000002 -0.000000 0.000000 -9.279574 0.614721 2.637532 80.133651 7.685658 4.120435 11.092525 9.946266 -3.922496 -4.172994 0.000001 -0.000002 -0.000000 -0.000001 0.000001 -24.283044 -6.429857 1.798856 40.209819 4.384492 2.208902 -25.391052 0.944494 -5.050883 -0.006180 0.000001 -0.000001 0.000000 -0.000000 0.000000 
0.239359 91.824814 175.925705 9.463018 4.290181 -1.783932 8.200915 -0.421260 5.353715 1.441274 -0.696702 2.282402 1.429520 -0.702401 2.287883 -0.574014 0.826588 -0.965374 -4.316287 -0.161708 -0.310101 0.000003 0.000000 0.000000 2.305823 1.553169 -9.093070 -4.647336 -29.444273 -65.955435 -0.000012 -49.260270 -0.000012 -0.000003 0.000001 -0.000001 1.229242 -1.556060 11.605922 -2.228653 7.383464 46.259092 0.000008 49.666267 0.000006 0.000003 -0.000005 0.000001 -13.544450 0.054272 2.324287 84.018553 7.457353 3.225316 9.242270 7.949423 -3.008115 -4.191407 -0.000001 0.000004 0.000000 0.000001 -0.000000 -21.359166 -6.311194 1.449942 40.568438 6.454837 2.553890 -28.362140 1.343080 -6.697506 -0.110735 0.000002 0.000001 0.000001 -0.000000 0.000000 
0.131856 91.637466 180.147720 9.687834 3.145636 -0.949383 8.409750 0.580179 4.401593 1.580604 -0.157607 2.153424 1.577010 -0.167121 2.153966 -0.687440 0.573695 -0.819079 -4.442660 -0.217005 -0.276639 -0.000001 0.000000 -0.000000 2.426325 2.279811 -9.503389 -3.146663 -26.939741 -65.657768 -0.000028 -44.726008 -0.000007 -0.000003 -0.000003 -0.000000 1.453998 0.018052 10.733937 -7.328520 9.435954 48.037649 -0.000003 48.270344 -0.000008 0.000003 -0.000000 -0.000001 -18.245804 -0.216688 1.731520 86.481786 6.814751 2.350175 7.057573 5.013532 -3.541771 -4.052257 0.000004 0.000000 0.000000 -0.000001 0.000000 -18.415764 -6.034360 1.008846 40.028727 8.288316 2.374829 -29.793610 1.682595 -8.027554 -0.470374 0.000002 0.000003 0.000000 0.000000 0.000000 
0.031661 91.776344 184.214310 9.723936 2.075010 -0.057999 8.512058 1.536491 3.125494 1.663686 0.305833 1.911731 1.667065 0.294758 1.908568 -0.760192 0.317650 -0.601703 -4.520371 -0.274061 -0.191344 0.000000 -0.000000 -0.000000 2.502152 2.876791 -9.595221 -0.161373 -24.700128 -64.307665 -0.000034 -41.344286 -0.000027 0.000002 0.000001 -0.000001 1.694122 1.539672 9.644800 -11.482657 11.999394 50.725486 0.000000 47.900438 0.000000 0.000002 0.000002 -0.000001 -22.068674 -0.330312 1.136520 86.899377 6.526193 1.611374 4.876980 2.362281 -4.686865 -4.386008 0.000002 -0.000001 -0.000002 0.000000 0.000000 -15.529251 -5.844747 0.782400 39.415372 8.567843 1.404537 -29.442623 1.468796 -7.390926 -2.966023 0.007989 -0.278813 0.000001 0.000000 0.000000 
-0.056135 92.286736 188.438782 9.751447 1.012057 0.997951 8.608854 2.246309 1.675816 1.698940 0.675842 1.578814 1.706621 0.665049 1.572581 -0.778547 0.065737 -0.360326 -4.543791 -0.324616 -0.106508 -0.000000 0.000000 -0.000000 2.546985 3.481228 -9.284741 4.119888 -23.217908 -62.270452 -0.000018 -39.367448 -0.000030 0.000001 0.000001 -0.000001 1.951430 2.946374 8.381850 -14.992506 14.641885 54.136742 0.000000 48.103455 0.000003 0.000001 0.000002 -0.000001 -25.072793 -0.118551 0.241069 85.150671 6.437703 0.977125 3.333638 0.704835 -6.069023 -5.103053 0.000002 -0.000004 -0.000000 -0.000000 -0.000001 -11.748690 -5.702037 0.741955 37.127546 7.884213 -0.156781 -28.257903 1.169196 -6.512845 -5.875345 0.008449 -0.146162 0.000001 0.000000 0.000000 
-0.156345 92.988754 192.972900 9.925572 0.196969 1.937236 8.690523 2.718953 0.172030 1.684681 0.965157 1.194461 1.694069 0.955535 1.185235 -0.756468 -0.167383 -0.157773 -4.532782 -0.355680 -0.068164 0.000000 0.000000 0.000000 2.570336 4.129301 -8.687347 9.320352 -22.468512 -60.012965 -0.000005 -38.923749 -0.000004 0.000002 -0.000000 -0.000000 2.232166 4.250840 6.957400 -18.282933 16.826758 58.043494 0.000019 48.508871 -0.000007 0.000001 -0.000001 0.000000 -27.923463 0.133335 -0.742019 81.929164 6.240523 0.379152 1.262834 0.138607 -6.575669 -5.616547 -0.000004 0.000004 0.000002 -0.000000 0.000000 -6.949975 -5.569164 0.875846 32.613880 7.095116 -1.872785 -25.840622 0.697177 -5.066549 -8.600039 0.018864 -0.229404 0.000000 -0.000000 0.000000 
-0.231416 93.727364 197.368317 9.895219 -0.585978 3.035249 8.776759 3.130803 -1.364578 1.602661 1.233845 0.809979 1.612077 1.226179 0.796964 -0.717365 -0.365290 -0.088596 -4.507277 -0.358634 -0.112549 -0.000000 0.000000 -0.000000 2.578858 4.580112 -8.079707 14.898214 -22.282708 -57.697606 -0.000009 -40.211065 -0.000007 -0.000000 0.000000 0.000000 2.557410 5.288801 5.269806 -21.322447 18.285289 62.204199 -0.000012 49.049508 0.000028 0.000002 -0.000002 0.000001 -29.815948 0.349274 -1.814549 77.741432 6.331684 -0.177050 -1.180896 0.620704 -9.213055 -5.639020 0.000003 -0.000004 0.000000 -0.000000 -0.000000 -1.020278 -5.306800 0.622796 25.714218 7.008523 -3.426503 -22.203739 0.277165 -3.462337 -10.891742 0.050408 -0.495566 -0.000000 -0.000000 0.000000 
